<?xml version="1.0" encoding="UTF-8"?>
<svg width="32px" height="32px" viewBox="0 0 32 32" version="1.1" xmlns="http://www.w3.org/2000/svg">
    <title>Latest Online Tools Favicon</title>
    <defs>
        <linearGradient id="brandGradient" x1="0%" y1="0%" x2="100%" y2="100%">
            <stop offset="0%" stop-color="#00C4CC"/>
            <stop offset="100%" stop-color="#6A3BE4"/>
        </linearGradient>
    </defs>
    <g stroke="none" stroke-width="1" fill="none" fill-rule="evenodd">
        <rect fill="url(#brandGradient)" x="0" y="0" width="32" height="32" rx="8"></rect>
        <path d="M16,8 C12.13,8 9,11.13 9,15 C9,18.87 12.13,22 16,22 C19.87,22 23,18.87 23,15 C23,11.13 19.87,8 16,8 Z M16,20 C13.24,20 11,17.76 11,15 C11,12.24 13.24,10 16,10 C18.76,10 21,12.24 21,15 C21,17.76 18.76,20 16,20 Z" fill="#FFFFFF" fill-rule="nonzero"></path>
        <path d="M16,12 C14.34,12 13,13.34 13,15 C13,16.66 14.34,18 16,18 C17.66,18 19,16.66 19,15 C19,13.34 17.66,12 16,12 Z M16,16 C15.45,16 15,15.55 15,15 C15,14.45 15.45,14 16,14 C16.55,14 17,14.45 17,15 C17,15.55 16.55,16 16,16 Z" fill="#FFFFFF" fill-rule="nonzero"></path>
    </g>
</svg>
