<?xml version="1.0" encoding="UTF-8"?>
<svg width="32px" height="32px" viewBox="0 0 32 32" version="1.1" xmlns="http://www.w3.org/2000/svg">
    <title>Convert Icon</title>
    <g stroke="none" stroke-width="1" fill="none" fill-rule="evenodd">
        <circle fill="#007BFF" cx="16" cy="16" r="16"></circle>
        <g transform="translate(8.000000, 8.000000)" fill="#FFFFFF" fill-rule="nonzero">
            <path d="M14,12 L11,12 L11,14 L14,14 C15.1,14 16,13.1 16,12 L16,10 L14,10 L14,12 Z"></path>
            <path d="M2,10 L0,10 L0,12 C0,13.1 0.9,14 2,14 L5,14 L5,12 L2,12 L2,10 Z"></path>
            <path d="M2,4 L5,4 L5,2 L2,2 C0.9,2 0,2.9 0,4 L0,6 L2,6 L2,4 Z"></path>
            <path d="M10,0 L6,0 C4.9,0 4,0.9 4,2 L4,14 C4,15.1 4.9,16 6,16 L10,16 C11.1,16 12,15.1 12,14 L12,2 C12,0.9 11.1,0 10,0 Z M10,14 L6,14 L6,2 L10,2 L10,14 Z"></path>
            <path d="M14,2 L14,4 L16,4 L16,4 C16,2.9 15.1,2 14,2 Z"></path>
        </g>
    </g>
</svg>
