<?xml version="1.0" encoding="UTF-8"?>
<svg width="32px" height="32px" viewBox="0 0 32 32" version="1.1" xmlns="http://www.w3.org/2000/svg">
    <title>Link Icon</title>
    <g stroke="none" stroke-width="1" fill="none" fill-rule="evenodd">
        <circle fill="#28A745" cx="16" cy="16" r="16"></circle>
        <g transform="translate(8.000000, 8.000000)" fill="#FFFFFF" fill-rule="nonzero">
            <path d="M1.9,8 C1.9,6.29 3.29,4.9 5,4.9 L8,4.9 L8,3 L5,3 C2.24,3 0,5.24 0,8 C0,10.76 2.24,13 5,13 L8,13 L8,11.1 L5,11.1 C3.29,11.1 1.9,9.71 1.9,8 Z"></path>
            <path d="M6,9 L10,9 L10,7 L6,7 L6,9 Z"></path>
            <path d="M11,3 L8,3 L8,4.9 L11,4.9 C12.71,4.9 14.1,6.29 14.1,8 C14.1,9.71 12.71,11.1 11,11.1 L8,11.1 L8,13 L11,13 C13.76,13 16,10.76 16,8 C16,5.24 13.76,3 11,3 Z"></path>
        </g>
    </g>
</svg>
