<?xml version="1.0" encoding="UTF-8"?>
<svg width="32px" height="32px" viewBox="0 0 32 32" version="1.1" xmlns="http://www.w3.org/2000/svg">
    <title>Markdown Icon</title>
    <g stroke="none" stroke-width="1" fill="none" fill-rule="evenodd">
        <circle fill="#6610F2" cx="16" cy="16" r="16"></circle>
        <g transform="translate(8.000000, 10.000000)" fill="#FFFFFF" fill-rule="nonzero">
            <path d="M0,0 L0,12 L16,12 L16,0 L0,0 Z M14.5,10.5 L1.5,10.5 L1.5,1.5 L14.5,1.5 L14.5,10.5 Z"></path>
            <polygon points="2.5 9 4.5 9 4.5 4.5 6.5 6.5 8.5 4.5 8.5 9 10.5 9 10.5 3 8.5 3 6.5 5 4.5 3 2.5 3"></polygon>
            <polygon points="11.5 3 11.5 6 13.5 6 13.5 3 11.5 3"></polygon>
            <polygon points="11.5 7 11.5 9 13.5 9 13.5 7 11.5 7"></polygon>
        </g>
    </g>
</svg>
