<?xml version="1.0" encoding="UTF-8"?>
<svg width="48px" height="48px" viewBox="0 0 48 48" version="1.1" xmlns="http://www.w3.org/2000/svg">
    <title>PDF Icon</title>
    <g stroke="none" stroke-width="1" fill="none" fill-rule="evenodd">
        <rect fill="#FF6B6B" x="0" y="0" width="48" height="48" rx="8"></rect>
        <g transform="translate(12.000000, 8.000000)" fill="#FFFFFF" fill-rule="nonzero">
            <path d="M14,0 L2,0 C0.9,0 0,0.9 0,2 L0,30 C0,31.1 0.9,32 2,32 L22,32 C23.1,32 24,31.1 24,30 L24,10 L14,0 Z M13,3.5 L20.5,11 L13,11 L13,3.5 Z M22,30 L2,30 L2,2 L11,2 L11,13 L22,13 L22,30 Z"></path>
            <path d="M5,18 L7.5,18 C8.33,18 9,18.67 9,19.5 L9,19.5 C9,20.33 8.33,21 7.5,21 L6,21 L6,23 L5,23 L5,18 Z M6,20 L7.5,20 C7.78,20 8,19.78 8,19.5 L8,19.5 C8,19.22 7.78,19 7.5,19 L6,19 L6,20 Z"></path>
            <path d="M10,18 L12.25,18 C13.22,18 14,18.78 14,19.75 L14,21.25 C14,22.22 13.22,23 12.25,23 L10,23 L10,18 Z M11,22 L12.25,22 C12.66,22 13,21.66 13,21.25 L13,19.75 C13,19.34 12.66,19 12.25,19 L11,19 L11,22 Z"></path>
            <path d="M15,18 L19,18 L19,19 L16,19 L16,20 L18,20 L18,21 L16,21 L16,22 L19,22 L19,23 L15,23 Z"></path>
        </g>
    </g>
</svg>
